# xmcd
#
# Track frame offsets:
#	150
#	18549
#	29462
#	45665
#	60644
#	77713
#	95572
#	112825
#	125503
#	137366
#	150044
#	164868
#	182137
#	196916
#	208415
#	226084
#	238222
#	252166
#	267360
#	283489
#	296197
#	305745
#	319959
#	333443
#	348451
#
# Disc length: 4820 seconds
#
# Revision: 0
# Processed by: cddbd v1.5.2PL0 Copyright (c) Steve Scherf et al.
# Submitted via: EasyCDDAExtractor 10.2.0.1
#
DISCID=7d12d219
DTITLE=Barreirito (Organizador) - Histórias do Meu Sertão - Volume 2
DYEAR=2007
DGENRE=Sertanejo
TTITLE0=Eu era da roça - Jander e Jandel
TTITLE1=Cachorro manco - Rio Pardo e Odilon
TTITLE2=Presente especial - Tião do Carro e Santarem
TTITLE3=Soldadinho de Deus - Guatupê e Guaratuba
TTITLE4=A força do amor - Layde e Laura
TTITLE5=Fã número 1 - Durval e Davi
TTITLE6=Beleza divina - Sandra Reis e Judimara
TTITLE7=No fim dos tempos - Goiano e Paranhense
TTITLE8=Porão da vida - Peão Carreiro e Zé Paulo
TTITLE9=Sonho acabado - Tenório e Praense
TTITLE10=Índio sertanejo - André e Andrade
TTITLE11=Parceria com Deus - Ronaldo Viola e Praiano
TTITLE12=Coração da natureza - Juliana Andrade e Jucimara
TTITLE13=Lavoura de maconha - Dino Franco e Mouraí
TTITLE14=Vidinha de caipira - Zé Mulato e Cassiano
TTITLE15=País maravilha - Tião Carreiro e Praiano
TTITLE16=O Brasil tem solução - Delley e Dorivan
TTITLE17=O caipirão - Leo Canhoto e Robertinho
TTITLE18=Meu sonho - Vanderley e Valtecy
TTITLE19=Mala amarela - Otávio Augusto e Gabriel
TTITLE20=Justo e perfeito - Jacó e Jacozito
TTITLE21=Cachorro amigo - Iridio e Irineu
TTITLE22=Conselho de um pai - Kleber e Fábio
TTITLE23=Filosofia sertaneja - João Mulato e João Carvalho
TTITLE24=Rancho caboclo - André Luis e Giordane
EXTD=
EXTT0=
EXTT1=
EXTT2=
EXTT3=
EXTT4=
EXTT5=
EXTT6=
EXTT7=
EXTT8=
EXTT9=
EXTT10=
EXTT11=
EXTT12=
EXTT13=
EXTT14=
EXTT15=
EXTT16=
EXTT17=
EXTT18=
EXTT19=
EXTT20=
EXTT21=
EXTT22=
EXTT23=
EXTT24=
PLAYORDER=
